<?xml version="1.0" encoding="UTF-8" standalone="no"?>
<!-- Created with Inkscape (http://www.inkscape.org/) -->

<svg
   width="1000"
   height="1000"
   viewBox="0 0 264.58333 264.58333"
   version="1.1"
   id="svg5"
   xml:space="preserve"
   inkscape:version="1.2.2 (b0a8486541, 2022-12-01)"
   sodipodi:docname="kickoff logo.svg"
   inkscape:export-filename="kickoff logo.png"
   inkscape:export-xdpi="96"
   inkscape:export-ydpi="96"
   xmlns:inkscape="http://www.inkscape.org/namespaces/inkscape"
   xmlns:sodipodi="http://sodipodi.sourceforge.net/DTD/sodipodi-0.dtd"
   xmlns:xlink="http://www.w3.org/1999/xlink"
   xmlns="http://www.w3.org/2000/svg"
   xmlns:svg="http://www.w3.org/2000/svg"><sodipodi:namedview
     id="namedview7"
     pagecolor="#ffffff"
     bordercolor="#000000"
     borderopacity="0.25"
     inkscape:showpageshadow="2"
     inkscape:pageopacity="0.0"
     inkscape:pagecheckerboard="0"
     inkscape:deskcolor="#d1d1d1"
     inkscape:document-units="mm"
     showgrid="false"
     inkscape:zoom="1.4142136"
     inkscape:cx="201.52543"
     inkscape:cy="522.55191"
     inkscape:window-width="3834"
     inkscape:window-height="1569"
     inkscape:window-x="0"
     inkscape:window-y="0"
     inkscape:window-maximized="1"
     inkscape:current-layer="layer1" /><defs
     id="defs2"><inkscape:path-effect
       effect="mirror_symmetry"
       start_point="132.66115,175.45492"
       end_point="132.66115,255.27227"
       center_point="132.66115,215.36359"
       id="path-effect8978"
       is_visible="true"
       lpeversion="1.2"
       lpesatellites=""
       mode="free"
       discard_orig_path="false"
       fuse_paths="false"
       oposite_fuse="false"
       split_items="false"
       split_open="false"
       link_styles="false" /><inkscape:path-effect
       effect="mirror_symmetry"
       start_point="132.29167,168.50806"
       end_point="132.29167,257.61787"
       center_point="132.29167,213.06296"
       id="path-effect8801"
       is_visible="true"
       lpeversion="1.2"
       lpesatellites=""
       mode="free"
       discard_orig_path="false"
       fuse_paths="false"
       oposite_fuse="false"
       split_items="false"
       split_open="false"
       link_styles="false" /><inkscape:path-effect
       effect="mirror_symmetry"
       start_point="8.2700672,6.9983678"
       end_point="8.2700672,40.061274"
       center_point="8.2700672,23.529821"
       id="path-effect7889"
       is_visible="true"
       lpeversion="1.2"
       lpesatellites=""
       mode="free"
       discard_orig_path="false"
       fuse_paths="false"
       oposite_fuse="false"
       split_items="false"
       split_open="false"
       link_styles="false" /><inkscape:path-effect
       effect="mirror_symmetry"
       start_point="40.782177,24.805085"
       end_point="24.805237,24.805085"
       center_point="32.793707,24.805085"
       id="path-effect7885"
       is_visible="true"
       lpeversion="1.2"
       lpesatellites=""
       mode="free"
       discard_orig_path="false"
       fuse_paths="false"
       oposite_fuse="false"
       split_items="false"
       split_open="false"
       link_styles="false" /><inkscape:path-effect
       effect="mirror_symmetry"
       start_point="8.2700672,6.9983678"
       end_point="8.2700672,40.061274"
       center_point="8.2700672,23.529821"
       id="path-effect7879"
       is_visible="true"
       lpeversion="1.2"
       lpesatellites=""
       mode="free"
       discard_orig_path="false"
       fuse_paths="false"
       oposite_fuse="false"
       split_items="false"
       split_open="false"
       link_styles="false" /><inkscape:path-effect
       effect="mirror_symmetry"
       start_point="40.782177,24.805085"
       end_point="24.805237,24.805085"
       center_point="32.793707,24.805085"
       id="path-effect7875"
       is_visible="true"
       lpeversion="1.2"
       lpesatellites=""
       mode="free"
       discard_orig_path="false"
       fuse_paths="false"
       oposite_fuse="false"
       split_items="false"
       split_open="false"
       link_styles="false" /><inkscape:path-effect
       effect="mirror_symmetry"
       start_point="8.2700672,6.9983678"
       end_point="8.2700672,40.061274"
       center_point="8.2700672,23.529821"
       id="path-effect7866"
       is_visible="true"
       lpeversion="1.2"
       lpesatellites=""
       mode="free"
       discard_orig_path="false"
       fuse_paths="false"
       oposite_fuse="false"
       split_items="false"
       split_open="false"
       link_styles="false" /><inkscape:path-effect
       effect="mirror_symmetry"
       start_point="40.782177,24.805085"
       end_point="24.805237,24.805085"
       center_point="32.793707,24.805085"
       id="path-effect7864"
       is_visible="true"
       lpeversion="1.2"
       lpesatellites=""
       mode="free"
       discard_orig_path="false"
       fuse_paths="false"
       oposite_fuse="false"
       split_items="false"
       split_open="false"
       link_styles="false" /><inkscape:path-effect
       effect="mirror_symmetry"
       start_point="132.29167,161.37206"
       end_point="132.29167,257.54397"
       center_point="132.29167,209.45801"
       id="path-effect4685"
       is_visible="true"
       lpeversion="1.2"
       lpesatellites=""
       mode="free"
       discard_orig_path="false"
       fuse_paths="false"
       oposite_fuse="false"
       split_items="false"
       split_open="false"
       link_styles="false" /><inkscape:path-effect
       effect="mirror_symmetry"
       start_point="132.29167,168.50806"
       end_point="132.29167,257.61787"
       center_point="132.29167,213.06296"
       id="path-effect4683"
       is_visible="true"
       lpeversion="1.2"
       lpesatellites=""
       mode="free"
       discard_orig_path="false"
       fuse_paths="false"
       oposite_fuse="false"
       split_items="false"
       split_open="false"
       link_styles="false" /><inkscape:path-effect
       effect="mirror_symmetry"
       start_point="132.86699,154.08293"
       end_point="132.86699,191.15961"
       center_point="132.86699,172.62127"
       id="path-effect4482"
       is_visible="true"
       lpeversion="1.2"
       lpesatellites=""
       mode="free"
       discard_orig_path="false"
       fuse_paths="false"
       oposite_fuse="false"
       split_items="false"
       split_open="false"
       link_styles="false" /><inkscape:path-effect
       effect="mirror_symmetry"
       start_point="132.29141,46.113668"
       end_point="132.29141,192.20044"
       center_point="132.29141,119.15705"
       id="path-effect4424"
       is_visible="true"
       lpeversion="1.2"
       lpesatellites=""
       mode="free"
       discard_orig_path="false"
       fuse_paths="false"
       oposite_fuse="false"
       split_items="false"
       split_open="false"
       link_styles="false" /><inkscape:path-effect
       effect="mirror_symmetry"
       start_point="132.29166,43.95326"
       end_point="132.29166,197.12867"
       center_point="132.29166,120.54096"
       id="path-effect365"
       is_visible="true"
       lpeversion="1.2"
       lpesatellites=""
       mode="free"
       discard_orig_path="false"
       fuse_paths="false"
       oposite_fuse="false"
       split_items="false"
       split_open="false"
       link_styles="false" /><inkscape:path-effect
       effect="mirror_symmetry"
       start_point="132.29166,45.32517"
       end_point="132.29166,203.66898"
       center_point="132.29166,124.49707"
       id="path-effect345"
       is_visible="true"
       lpeversion="1.2"
       lpesatellites=""
       mode="free"
       discard_orig_path="false"
       fuse_paths="false"
       oposite_fuse="false"
       split_items="false"
       split_open="false"
       link_styles="false" /><linearGradient
       y2="236"
       x2="96"
       y1="236"
       x1="32"
       gradientTransform="translate(604.81684,170.58641)"
       gradientUnits="userSpaceOnUse"
       id="linearGradient1099"
       xlink:href="#linearGradient1036" /><linearGradient
       id="linearGradient1036"><stop
         id="stop1032"
         offset="0"
         style="stop-color:#d5d3cf;stop-opacity:1;" /><stop
         id="stop1034"
         offset="1"
         style="stop-color:#f6f5f4;stop-opacity:1" /></linearGradient><radialGradient
       r="32"
       fy="-76"
       fx="-244"
       cy="-76"
       cx="-244"
       gradientTransform="matrix(0.88333331,0,0,0.88333331,-460.35018,463.11973)"
       gradientUnits="userSpaceOnUse"
       id="radialGradient1103"
       xlink:href="#linearGradient1069" /><linearGradient
       id="linearGradient1069"><stop
         id="stop1065"
         offset="0"
         style="stop-color:#d5d3cf;stop-opacity:1" /><stop
         id="stop1067-1"
         offset="1"
         style="stop-color:#949390;stop-opacity:1" /></linearGradient><linearGradient
       gradientUnits="userSpaceOnUse"
       y2="232"
       x2="64"
       y1="262.5"
       x1="64"
       id="linearGradient1027"
       xlink:href="#linearGradient1025"
       gradientTransform="translate(-470.5864,432.81685)" /><linearGradient
       id="linearGradient1025"><stop
         id="stop1021"
         offset="0"
         style="stop-color:#9a9996;stop-opacity:1" /><stop
         id="stop1023"
         offset="1"
         style="stop-color:#77767b;stop-opacity:1" /></linearGradient><inkscape:path-effect
       effect="spiro"
       id="path-effect35304-9"
       is_visible="true" /><clipPath
       clipPathUnits="userSpaceOnUse"
       id="clipPath1609-7"><path
         sodipodi:nodetypes="cccccc"
         inkscape:connector-curvature="0"
         id="path1611-5"
         d="m 252,116 28,-28 v -8 h -36 v 36 z"
         style="fill:#e74747;stroke:none;stroke-width:0.25px;stroke-linecap:butt;stroke-linejoin:miter;stroke-opacity:1" /></clipPath><clipPath
       clipPathUnits="userSpaceOnUse"
       id="clipPath4755"><rect
         style="display:inline;fill:#465872;fill-opacity:1;stroke-width:1.511"
         id="rect4757"
         width="212.92659"
         height="212.92659"
         x="25.82843"
         y="25.828375"
         ry="17.088017"
         sodipodi:insensitive="true"
         inkscape:label="rect3531"
         d="M 42.916447,25.828375 H 221.667 c 9.46676,0 17.08802,7.621255 17.08802,17.088016 V 221.66695 c 0,9.46676 -7.62126,17.08801 -17.08802,17.08801 H 42.916447 c -9.466761,0 -17.088017,-7.62125 -17.088017,-17.08801 V 42.916391 c 0,-9.466761 7.621256,-17.088016 17.088017,-17.088016 z m 178.750443,0 H 42.916336 c -9.466761,0 -17.088016,7.621255 -17.088016,17.088016 V 221.66695 c 0,9.46676 7.621255,17.08801 17.088016,17.08801 H 221.66689 c 9.46676,0 17.08802,-7.62125 17.08802,-17.08801 V 42.916391 c 0,-9.466761 -7.62126,-17.088016 -17.08802,-17.088016 z" /></clipPath><clipPath
       clipPathUnits="userSpaceOnUse"
       id="clipPath4771"><rect
         style="display:inline;fill:#465872;fill-opacity:1;stroke-width:1.511"
         id="rect4773"
         width="212.92659"
         height="212.92659"
         x="25.82843"
         y="25.828375"
         ry="17.088017"
         d="M 42.916447,25.828375 H 221.667 c 9.46676,0 17.08802,7.621255 17.08802,17.088016 V 221.66695 c 0,9.46676 -7.62126,17.08801 -17.08802,17.08801 H 42.916447 c -9.466761,0 -17.088017,-7.62125 -17.088017,-17.08801 V 42.916391 c 0,-9.466761 7.621256,-17.088016 17.088017,-17.088016 z m 178.750443,0 H 42.916336 c -9.466761,0 -17.088016,7.621255 -17.088016,17.088016 V 221.66695 c 0,9.46676 7.621255,17.08801 17.088016,17.08801 H 221.66689 c 9.46676,0 17.08802,-7.62125 17.08802,-17.08801 V 42.916391 c 0,-9.466761 -7.62126,-17.088016 -17.08802,-17.088016 z" /></clipPath><clipPath
       clipPathUnits="userSpaceOnUse"
       id="clipPath8783"><ellipse
         style="fill:#d5e5f9;fill-opacity:1;stroke-width:1.3364"
         id="ellipse8785"
         cx="132.66096"
         cy="103.34282"
         rx="14.067837"
         ry="13.740726"
         inkscape:label="glass"
         transform="rotate(69.379048)" /></clipPath><clipPath
       clipPathUnits="userSpaceOnUse"
       id="clipPath8983"><rect
         style="display:inline;fill:#465872;fill-opacity:1;stroke-width:1.511"
         id="rect8985"
         width="212.92659"
         height="212.92659"
         x="25.82843"
         y="25.828375"
         ry="17.088017"
         d="M 42.916447,25.828375 H 221.667 c 9.46676,0 17.08802,7.621255 17.08802,17.088016 V 221.66695 c 0,9.46676 -7.62126,17.08801 -17.08802,17.08801 H 42.916447 c -9.466761,0 -17.088017,-7.62125 -17.088017,-17.08801 V 42.916391 c 0,-9.466761 7.621256,-17.088016 17.088017,-17.088016 z m 179.489403,0 H 43.655296 c -9.466761,0 -17.088016,7.621255 -17.088016,17.088016 V 221.66695 c 0,9.46676 7.621255,17.08801 17.088016,17.08801 H 222.40585 c 9.46676,0 17.08802,-7.62125 17.08802,-17.08801 V 42.916391 c 0,-9.466761 -7.62126,-17.088016 -17.08802,-17.088016 z" /></clipPath><clipPath
       clipPathUnits="userSpaceOnUse"
       id="clipPath955"><ellipse
         style="display:inline;fill:#77767b;fill-opacity:1;stroke-width:1.3364"
         id="ellipse957"
         cx="132.19121"
         cy="102.56364"
         rx="14.067837"
         ry="13.740726"
         inkscape:label="inner shadow" /></clipPath></defs><g
     inkscape:label="Template"
     inkscape:groupmode="layer"
     id="layer1"
     sodipodi:insensitive="true"
     style="display:none"><g
       style="display:inline;enable-background:new"
       id="g3113"
       transform="matrix(2.0670573,0,0,2.0670573,-1.4470247e-7,-1.0666667e-6)"><g
         id="layer1-3"
         inkscape:label="App Icon"
         style="display:inline"
         transform="translate(0,-172)"><g
           inkscape:groupmode="layer"
           id="layer2"
           inkscape:label="baseplate"
           style="display:inline"
           sodipodi:insensitive="true"><g
             style="display:inline;fill:#000000;enable-background:new"
             transform="matrix(7.9911709,0,0,8.0036407,-167.7909,-4846.0776)"
             id="g12027"
             inkscape:export-xdpi="12"
             inkscape:export-ydpi="12" /><rect
             style="display:inline;overflow:visible;visibility:visible;fill:#f0f0f0;fill-opacity:1;fill-rule:nonzero;stroke:none;stroke-width:0.5;marker:none;enable-background:accumulate"
             id="rect13805"
             width="128"
             height="128"
             x="9.2651362e-08"
             y="172"
             inkscape:label="512x512" /><g
             id="g883"
             style="fill:none;fill-opacity:0.25098;stroke:#a579b3;stroke-opacity:1"
             transform="translate(-24,24)" /><g
             id="g900"
             style="fill:none;fill-opacity:0.25098;stroke:#a579b3;stroke-opacity:1"
             transform="translate(-24,24)" /><rect
             inkscape:label="512x512"
             y="172"
             x="160"
             height="16"
             width="16"
             id="rect859"
             style="display:inline;overflow:visible;visibility:visible;fill:#f0f0f0;fill-opacity:1;fill-rule:nonzero;stroke:none;stroke-width:0.5;marker:none;enable-background:accumulate" /><text
             xml:space="preserve"
             style="font-style:normal;font-variant:normal;font-weight:bold;font-stretch:normal;font-size:4px;line-height:125%;font-family:Cantarell;-inkscape-font-specification:'Cantarell, Bold';text-align:start;writing-mode:lr-tb;text-anchor:start;display:inline;fill:#000000;fill-opacity:1;stroke:none;stroke-width:0.332649;enable-background:new"
             x="0"
             y="164"
             id="text863"
             inkscape:label="icon-name"><tspan
               style="font-size:4px;stroke-width:0.332649"
               sodipodi:role="line"
               id="tspan861"
               x="0"
               y="164">Hicolor</tspan></text><text
             inkscape:label="icon-name"
             id="text867"
             y="164"
             x="160"
             style="font-style:normal;font-variant:normal;font-weight:bold;font-stretch:normal;font-size:4px;line-height:125%;font-family:Cantarell;-inkscape-font-specification:'Cantarell, Bold';text-align:start;writing-mode:lr-tb;text-anchor:start;display:inline;fill:#000000;fill-opacity:1;stroke:none;stroke-width:0.332649;enable-background:new"
             xml:space="preserve"><tspan
               y="164"
               x="160"
               id="tspan865"
               sodipodi:role="line"
               style="font-size:4px;stroke-width:0.332649">Symbolic</tspan></text></g><g
           inkscape:groupmode="layer"
           id="layer9"
           inkscape:label="icons"
           style="display:inline" /><g
           inkscape:groupmode="layer"
           id="layer3"
           inkscape:label="hairlines"
           style="display:inline"
           sodipodi:insensitive="true"><circle
             cx="64.000031"
             cy="236"
             r="59.504131"
             id="circle2892"
             style="display:inline;opacity:0.1;vector-effect:none;fill:none;fill-opacity:1;stroke:#000000;stroke-width:0.99;stroke-linecap:butt;stroke-linejoin:miter;stroke-miterlimit:4;stroke-dasharray:0.99, 0.99;stroke-dashoffset:0;stroke-opacity:1;marker:none;marker-start:none;marker-mid:none;marker-end:none;paint-order:normal;enable-background:new" /><rect
             ry="7.9292889"
             rx="8.701004"
             y="180.49496"
             x="20.495007"
             height="111.01005"
             width="87.009987"
             id="rect2894"
             style="display:inline;opacity:0.1;vector-effect:none;fill:none;fill-opacity:1;stroke:#000000;stroke-width:0.99;stroke-linecap:butt;stroke-linejoin:miter;stroke-miterlimit:4;stroke-dasharray:0.99, 0.99;stroke-dashoffset:0;stroke-opacity:1;marker:none;marker-start:none;marker-mid:none;marker-end:none;paint-order:normal;enable-background:new" /><rect
             ry="7.9238095"
             rx="7.9238095"
             y="184.49524"
             x="12.495266"
             height="103.00952"
             width="103.00952"
             id="rect2896"
             style="display:inline;opacity:0.1;vector-effect:none;fill:none;fill-opacity:1;stroke:#000000;stroke-width:0.99;stroke-linecap:butt;stroke-linejoin:miter;stroke-miterlimit:4;stroke-dasharray:0.99, 0.99;stroke-dashoffset:0;stroke-opacity:1;marker:none;marker-start:none;marker-mid:none;marker-end:none;paint-order:normal;enable-background:new" /><rect
             ry="8.701005"
             rx="7.9292889"
             y="200.49496"
             x="8.4950066"
             height="87.010048"
             width="111.01004"
             id="rect2898"
             style="display:inline;opacity:0.1;vector-effect:none;fill:none;fill-opacity:1;stroke:#000000;stroke-width:0.99;stroke-linecap:butt;stroke-linejoin:miter;stroke-miterlimit:4;stroke-dasharray:0.99, 0.99;stroke-dashoffset:0;stroke-opacity:1;marker:none;marker-start:none;marker-mid:none;marker-end:none;paint-order:normal;enable-background:new" /><path
             inkscape:connector-curvature="0"
             id="path2900"
             d="M 2.6203015e-5,288.99999 H 128.00003"
             style="display:inline;fill:none;stroke:#62a0ea;stroke-width:2;stroke-linecap:butt;stroke-linejoin:miter;stroke-miterlimit:4;stroke-dasharray:none;stroke-opacity:1;enable-background:new" /></g></g></g></g><g
     inkscape:groupmode="layer"
     id="layer4"
     inkscape:label="Background"
     style="display:inline"
     sodipodi:insensitive="true"><rect
       style="display:inline;fill:#465872;fill-opacity:1;stroke-width:1.511"
       id="rect8980"
       width="212.92659"
       height="212.92659"
       x="25.82843"
       y="25.828375"
       ry="17.088017" /></g><g
     inkscape:groupmode="layer"
     id="layer6"
     inkscape:label="Plume"><g
       id="g4674"
       inkscape:label="outer"
       style="fill:#f8e45c"><path
         id="path4538-7"
         style="fill:#f8e45c;fill-opacity:1;stroke-width:2.0113"
         d="m 41.340112,161.37206 c -22.135577,-1.7e-4 -40.0801285,17.94415 -40.0802406,40.07973 -1.696e-4,22.13578 17.9444646,40.08041 40.0802406,40.08024 5.515362,-0.01 10.96937,-1.1576 16.020728,-3.37189 7.474199,12.06786 20.376753,19.37259 34.23822,19.38383 22.47386,6e-5 40.69257,-18.83361 40.69261,-42.06617 -5e-5,-23.23255 -18.21875,-42.06622 -40.69261,-42.06616 -6.225034,0.004 -12.366181,1.48452 -17.950842,4.32738 -7.549819,-10.28776 -19.547317,-16.36557 -32.308106,-16.36696 z m 181.903118,0 c 22.13557,-1.7e-4 40.08013,17.94415 40.08024,40.07973 1.7e-4,22.13578 -17.94447,40.08041 -40.08024,40.08024 -5.51536,-0.01 -10.96937,-1.1576 -16.02073,-3.37189 -7.4742,12.06786 -20.37675,19.37259 -34.23822,19.38383 -22.47386,6e-5 -40.69257,-18.83361 -40.69261,-42.06617 5e-5,-23.23255 18.21875,-42.06622 40.69261,-42.06616 6.22503,0.004 12.36618,1.48452 17.95084,4.32738 7.54982,-10.28776 19.54732,-16.36557 32.30811,-16.36696 z"
         inkscape:path-effect="#path-effect4685"
         inkscape:original-d="M 41.340112 161.37206 A 40.079933 40.079933 0 0 0 1.2598714 201.45179 A 40.079933 40.079933 0 0 0 41.340112 241.53203 A 40.079933 40.079933 0 0 0 57.36084 238.16014 A 40.692513 42.06625 0 0 0 91.59906 257.54397 A 40.692513 42.06625 0 0 0 132.29167 215.4778 A 40.692513 42.06625 0 0 0 91.59906 173.41164 A 40.692513 42.06625 0 0 0 73.648218 177.73902 A 40.079933 40.079933 0 0 0 41.340112 161.37206 z "
         class="UnoptimicedTransforms"
         clip-path="url(#clipPath4771)" /></g><g
       id="g4679"
       inkscape:label="inner"
       style="fill:#ffa348"><path
         id="path4538"
         style="fill:#ffa348;fill-opacity:1;stroke-width:1.83225"
         d="m 37.772371,168.50806 c -20.165207,-2.7e-4 -36.5124858,16.34677 -36.5124996,36.51198 8.3e-6,20.16521 16.3472886,36.51226 36.5124996,36.51199 7.371637,-0.001 14.570228,-2.23399 20.648869,-6.40426 5.610248,13.61735 18.684917,22.48022 33.17782,22.4901 13.06595,-0.007 25.10294,-7.22609 31.45234,-18.86293 l 9.24027,5.1e-4 v -46.55478 l -12.39873,-0.19172 c -0.22558,2.52345 -0.26667,2.98614 -0.49919,5.58726 -6.83973,-8.46381 -17.03519,-13.36744 -27.79469,-13.36818 -7.236427,7e-5 -14.30496,2.2219 -20.284033,6.37584 -5.761261,-13.40606 -18.951066,-22.09468 -33.542656,-22.09581 z m 189.038599,0 c 20.16521,-2.7e-4 36.51248,16.34677 36.5125,36.51198 -10e-6,20.16521 -16.34729,36.51226 -36.5125,36.51199 -7.37164,-0.001 -14.57023,-2.23399 -20.64887,-6.40426 -5.61025,13.61735 -18.68492,22.48022 -33.17782,22.4901 -13.06595,-0.007 -25.10294,-7.22609 -31.45234,-18.86293 l -9.24027,5.1e-4 v -46.55478 l 12.39873,-0.19172 c 0.22558,2.52345 0.26667,2.98614 0.49919,5.58726 6.83973,-8.46381 17.03519,-13.36744 27.79469,-13.36818 7.23643,7e-5 14.30496,2.2219 20.28403,6.37584 5.76126,-13.40606 18.95107,-22.09468 33.54266,-22.09581 z"
         inkscape:path-effect="#path-effect4683"
         inkscape:original-d="M 37.772371 168.50806 A 36.512005 36.512005 0 0 0 1.2598714 205.02004 A 36.512005 36.512005 0 0 0 37.772371 241.53203 A 36.512005 36.512005 0 0 0 58.42124 235.12777 A 36.009323 36.694763 0 0 0 91.59906 257.61787 A 36.009323 36.694763 0 0 0 123.0514 238.75494 L 132.29167 238.75545 L 132.29167 192.20067 L 119.89294 192.00895 C 119.66736 194.5324 119.62627 194.99509 119.39375 197.59621 A 36.009323 36.694763 0 0 0 91.59906 184.22803 A 36.009323 36.694763 0 0 0 71.315027 190.60387 A 36.512005 36.512005 0 0 0 37.772371 168.50806 z "
         class="UnoptimicedTransforms"
         clip-path="url(#clipPath4755)" /><rect
         style="fill:#ffa348;fill-opacity:1;stroke-width:1.511"
         id="rect4827"
         width="173.84802"
         height="14.497883"
         x="45.736954"
         y="224.25708"
         ry="7.2489414" /></g><g
       id="g8975"
       inkscape:label="flame"
       style="fill:#f66151"><path
         id="path8855"
         style="fill:#f66151;fill-opacity:1;stroke-width:1.72302"
         d="m 36.838062,175.45492 c -18.039838,-10e-5 -32.6640847,16.0667 -32.6641566,35.88619 7.69e-5,19.81949 14.6243226,35.88628 32.6641566,35.88618 7.705401,-0.008 15.160017,-3.00935 21.04626,-8.47235 h 6.937561 c 5.618758,10.18691 16.29697,16.51058 27.891321,16.51733 11.594536,-0.007 22.272986,-6.33026 27.891836,-16.51733 h 12.05611 v -14.49783 -8.34212 0 l 3.1e-4,-23.72004 -9.14755,-0.13019 c 0.27673,8.22786 -0.24091,14.49612 -1.17254,19.27014 -4.84164,-12.17394 -16.57673,-20.15868 -29.628166,-20.15949 -9.326747,0.009 -18.18284,4.11557 -24.238314,11.24066 -3.708385,-15.86688 -16.72617,-26.96074 -31.636828,-26.96115 z m 191.646178,0 c 18.03984,-10e-5 32.66408,16.0667 32.66415,35.88619 -7e-5,19.81949 -14.62432,35.88628 -32.66415,35.88618 -7.7054,-0.008 -15.16002,-3.00935 -21.04626,-8.47235 h -6.93756 c -5.61876,10.18691 -16.29697,16.51058 -27.89132,16.51733 -11.59454,-0.007 -22.27299,-6.33026 -27.89184,-16.51733 h -12.05611 v -14.49783 -8.34212 0 l -3.1e-4,-23.72004 9.14755,-0.13019 c -0.27673,8.22786 0.24091,14.49612 1.17254,19.27014 4.84164,-12.17394 16.57673,-20.15868 29.62817,-20.15949 9.32674,0.009 18.18284,4.11557 24.23831,11.24066 3.70838,-15.86688 16.72617,-26.96074 31.63683,-26.96115 z"
         inkscape:path-effect="#path-effect8978"
         inkscape:original-d="m 36.838062,175.45492 c -18.039838,-10e-5 -32.6640847,16.0667 -32.6641566,35.88619 7.69e-5,19.81949 14.6243226,35.88628 32.6641566,35.88618 7.705401,-0.008 15.160017,-3.00935 21.04626,-8.47235 h 6.937561 c 5.618758,10.18691 16.29697,16.51058 27.891321,16.51733 11.594536,-0.007 22.272986,-6.33026 27.891836,-16.51733 h 12.05611 v -14.49783 -8.34212 0 l 3.1e-4,-23.72004 -9.14755,-0.13019 c 0.27673,8.22786 -0.24091,14.49612 -1.17254,19.27014 -4.84164,-12.17394 -16.57673,-20.15868 -29.628166,-20.15949 -9.326747,0.009 -18.18284,4.11557 -24.238314,11.24066 -3.708385,-15.86688 -16.72617,-26.96074 -31.636828,-26.96115 z"
         class="UnoptimicedTransforms"
         sodipodi:nodetypes="ccccccccccccccccc"
         clip-path="url(#clipPath8983)" /></g></g><g
     inkscape:groupmode="layer"
     id="layer5"
     inkscape:label="Rocket"><g
       id="g1115"
       inkscape:label="body"><path
         style="fill:#c0bfbc;fill-opacity:1;stroke-width:1.511"
         d="m 111.88283,185.62966 -21.985733,6.57078 c 0,0 -7.448973,-17.35728 12.500873,-33.46555 19.94985,-16.10826 9.48486,26.89477 9.48486,26.89477 z m 41.96832,0 21.98573,6.57078 c 0,0 7.44898,-17.35728 -12.50087,-33.46555 -19.94985,-16.10826 -9.48486,26.89477 -9.48486,26.89477 z"
         id="path4480"
         inkscape:path-effect="#path-effect4482"
         inkscape:original-d="m 111.88283,185.62966 -21.985733,6.57078 c 0,0 -7.448973,-17.35728 12.500873,-33.46555 19.94985,-16.10826 9.48486,26.89477 9.48486,26.89477 z"
         class="UnoptimicedTransforms"
         transform="translate(-0.57552728,-2.0941484)" /><path
         style="display:inline;fill:#deddda;fill-opacity:1;stroke-width:1.511"
         d="M 132.29111,46.113668 C 63.062376,78.777141 114.73685,191.90588 114.73685,191.90588 l 17.55456,0.29456 z m 6e-4,0 c 69.22873,32.663473 17.55426,145.792212 17.55426,145.792212 l -17.55456,0.29456 z"
         id="path4314"
         inkscape:path-effect="#path-effect4424"
         inkscape:original-d="M 132.29111,46.113668 C 63.062376,78.777141 114.73685,191.90588 114.73685,191.90588 l 17.55456,0.29456 z"
         class="UnoptimicedTransforms"
         transform="matrix(1,0,0,0.91947738,0,15.476483)"
         sodipodi:nodetypes="cccc" /></g><g
       id="g1135"
       inkscape:label="hatch"><ellipse
         style="display:inline;fill:#9a9996;fill-opacity:1;stroke-width:1.511"
         id="ellipse8787"
         cx="133.08939"
         cy="104.28213"
         rx="15.905849"
         ry="15.535999"
         inkscape:label="eye shadow" /><ellipse
         style="fill:#f6f5f4;fill-opacity:1;stroke-width:1.511"
         id="path7995"
         cx="132.66096"
         cy="103.34282"
         rx="15.905849"
         ry="15.535999"
         inkscape:label="eye" /><ellipse
         style="display:inline;fill:#9a9996;fill-opacity:1;stroke-width:1.3364"
         id="ellipse937"
         cx="132.66096"
         cy="103.34282"
         rx="14.067837"
         ry="13.740726"
         inkscape:label="inner shadow"
         transform="matrix(0.87097063,0,0,0.87097063,17.117163,13.33426)" /><g
         id="g935"
         transform="matrix(0.87097062,0,0,0.87097062,17.526311,14.012901)"><g
           id="g948"
           style="display:inline"
           clip-path="url(#clipPath955)"><ellipse
             style="display:inline;fill:#d5e5f9;fill-opacity:1;stroke-width:1.3364"
             id="ellipse7999"
             cx="132.66096"
             cy="103.34282"
             rx="14.067837"
             ry="13.740726"
             inkscape:label="glass" /><rect
             style="fill:#ffffff;fill-opacity:1;stroke-width:1.511"
             id="rect8779"
             width="60.512257"
             height="1.9887582"
             x="-82.09034"
             y="164.86787"
             ry="0"
             transform="rotate(-69.379048)"
             clip-path="url(#clipPath8783)" /></g></g><g
         id="g1111"
         inkscape:label="nubs"><circle
           style="fill:#9a9996;fill-opacity:1;stroke-width:1.10647"
           id="circle1073"
           cx="103.34282"
           cy="-146.7711"
           r="0.88700116"
           transform="rotate(90)" /><circle
           style="fill:#9a9996;fill-opacity:1;stroke-width:1.10647"
           id="circle1083"
           cx="7.5029001"
           cy="-181.99281"
           r="0.88700116"
           transform="rotate(125.36136)" /><circle
           style="fill:#9a9996;fill-opacity:1;stroke-width:1.10647"
           id="circle1085"
           cx="-93.258865"
           cy="-153.74747"
           r="0.88700116"
           transform="rotate(161.60005)" /><circle
           style="fill:#9a9996;fill-opacity:1;stroke-width:1.10647"
           id="circle1087"
           cx="-158.49883"
           cy="-69.999062"
           r="0.88700116"
           transform="rotate(-161.60005)" /><circle
           style="fill:#9a9996;fill-opacity:1;stroke-width:1.10647"
           id="circle1089"
           cx="-161.05301"
           cy="34.382065"
           r="0.88700116"
           transform="rotate(-125.36136)" /><circle
           style="fill:#9a9996;fill-opacity:1;stroke-width:1.10647"
           id="circle1091"
           cx="-103.34282"
           cy="118.55083"
           r="0.88700116"
           transform="rotate(-90)" /><circle
           style="fill:#9a9996;fill-opacity:1;stroke-width:1.10647"
           id="circle1093"
           cx="-7.5028467"
           cy="153.99751"
           r="0.88700116"
           transform="rotate(-54.638621)" /><circle
           style="fill:#9a9996;fill-opacity:1;stroke-width:1.10647"
           id="circle1095"
           cx="93.258881"
           cy="126.12004"
           r="0.88700116"
           transform="rotate(-18.399946)" /><circle
           style="fill:#9a9996;fill-opacity:1;stroke-width:1.10647"
           id="circle1097"
           cx="158.49881"
           cy="42.371662"
           r="0.88700116"
           transform="rotate(18.399946)" /><circle
           style="fill:#9a9996;fill-opacity:1;stroke-width:1.10647"
           id="circle1099"
           cx="161.05302"
           cy="-62.377316"
           r="0.88700116"
           transform="rotate(54.638621)" /></g></g></g><g
     inkscape:groupmode="layer"
     id="layer7"
     inkscape:label="Stars"><path
       style="fill:#f9f06b;fill-opacity:1;stroke-width:1.511"
       d="M 8.2700671,24.805084 V 8.2736316 c 0,0 0.049965,16.4947394 16.5351699,16.5314534 z m 0,2e-6 v 16.531452 c 0,0 0.049965,-16.494739 16.5351699,-16.531453 z m 2e-7,-2e-6 V 8.2736316 c 0,0 -0.049965,16.4947394 -16.5351699,16.5314534 z m 0,2e-6 v 16.531452 c 0,0 -0.049965,-16.494739 -16.5351699,-16.531453 z"
       id="path7862"
       sodipodi:nodetypes="cccc"
       inkscape:path-effect="#path-effect7864;#path-effect7866"
       inkscape:original-d="M 8.2700671,24.805084 V 8.2736316 c 0,0 0.049965,16.4947394 16.5351699,16.5314534 z"
       class="UnoptimicedTransforms"
       transform="matrix(0.7458037,0,0,0.7458037,77.705156,39.377233)" /><path
       style="fill:#f9f06b;fill-opacity:1;stroke-width:1.511"
       d="M 8.2700671,24.805084 V 8.2736316 c 0,0 0.049965,16.4947394 16.5351699,16.5314534 z m 0,2e-6 v 16.531452 c 0,0 0.049965,-16.494739 16.5351699,-16.531453 z m 2e-7,-2e-6 V 8.2736316 c 0,0 -0.049965,16.4947394 -16.5351699,16.5314534 z m 0,2e-6 v 16.531452 c 0,0 -0.049965,-16.494739 -16.5351699,-16.531453 z"
       id="path7871"
       sodipodi:nodetypes="cccc"
       inkscape:path-effect="#path-effect7875;#path-effect7879"
       inkscape:original-d="M 8.2700671,24.805084 V 8.2736316 c 0,0 0.049965,16.4947394 16.5351699,16.5314534 z"
       class="UnoptimicedTransforms"
       transform="matrix(0.9365669,0,0,0.9365669,188.68767,50.128148)" /><path
       style="fill:#f9f06b;fill-opacity:1;stroke-width:1.511"
       d="M 8.2700671,24.805084 V 8.2736316 c 0,0 0.049965,16.4947394 16.5351699,16.5314534 z m 0,2e-6 v 16.531452 c 0,0 0.049965,-16.494739 16.5351699,-16.531453 z m 2e-7,-2e-6 V 8.2736316 c 0,0 -0.049965,16.4947394 -16.5351699,16.5314534 z m 0,2e-6 v 16.531452 c 0,0 -0.049965,-16.494739 -16.5351699,-16.531453 z"
       id="path7881"
       sodipodi:nodetypes="cccc"
       inkscape:path-effect="#path-effect7885;#path-effect7889"
       inkscape:original-d="M 8.2700671,24.805084 V 8.2736316 c 0,0 0.049965,16.4947394 16.5351699,16.5314534 z"
       class="UnoptimicedTransforms"
       transform="matrix(0.44545137,0,0,0.44545137,52.010492,97.97783)" /></g></svg>
